<?xml version="1.0" encoding="UTF-8"?>
<svg version="1.1" xmlns="http://www.w3.org/2000/svg" width="512" height="511">
<path d="M0 0 C2.78896471 2.26513066 5.39856741 4.58856251 7.94921875 7.1171875 C9.8983721 8.90669591 11.58320173 9.96344995 14 11 C14.48726563 10.443125 14.97453125 9.88625 15.4765625 9.3125 C24.37550927 -0.2660027 35.45481137 -6.36093765 48 -10 C48.77214844 -10.22429688 49.54429687 -10.44859375 50.33984375 -10.6796875 C67.76867706 -14.91364701 87.31897151 -11.57076328 102.6171875 -2.4375 C105.16911724 -0.72031363 107.58816051 1.0914336 110 3 C110.83402344 3.64582031 111.66804688 4.29164062 112.52734375 4.95703125 C124.83116984 15.17546309 133.83519256 31.09337144 136 47 C136.125 50.5625 136.125 50.5625 136 53 C137.175625 52.67 138.35125 52.34 139.5625 52 C158.22359151 47.97620214 176.0338259 53.37399096 192 63 C206.0362978 72.27065823 216.09910153 87.46823871 220.52734375 103.65625 C223.73096953 119.54199768 222.07029708 133.78910875 217 149 C218.216875 149.185625 219.43375 149.37125 220.6875 149.5625 C235.99091081 153.00336124 249.34280252 164.29447276 258 177 C259.55949393 179.61820797 260.99121707 182.28523553 262.375 185 C262.69678223 185.62777344 263.01856445 186.25554687 263.35009766 186.90234375 C267.86292191 196.23823402 269.54379883 205.4272955 269.4375 215.75 C269.42920166 216.79841064 269.42090332 217.84682129 269.41235352 218.92700195 C268.98370262 238.73799557 260.94584116 255.34653956 246.765625 269.1796875 C229.61141601 283.97375364 209.36729446 287.11807286 187.4296875 287.203125 C186.26801056 287.20882507 185.10633362 287.21452515 183.90945435 287.22039795 C181.47073256 287.22978261 179.03199847 287.23635567 176.59326172 287.24023438 C172.87835729 287.24999118 169.16399503 287.28109785 165.44921875 287.3125 C163.06771158 287.31902682 160.68620051 287.32427855 158.3046875 287.328125 C157.20446259 287.3404718 156.10423767 287.3528186 154.97067261 287.36553955 C147.79168874 287.34492122 140.65537743 286.91370665 134.84375 282.28125 C134.4003125 281.6934375 133.956875 281.105625 133.5 280.5 C133.0359375 279.9121875 132.571875 279.324375 132.09375 278.71875 C129.3915652 274.47245959 129.41852459 269.8537045 130 265 C131.73553773 260.16124536 134.74635365 256.83576423 139 254 C142.13742198 252.95419267 144.3645104 252.86319656 147.65795898 252.84228516 C148.82024521 252.83202301 149.98253143 252.82176086 151.18003845 252.81118774 C153.06898582 252.80023575 153.06898582 252.80023575 154.99609375 252.7890625 C156.98174174 252.7681735 158.96738972 252.74726673 160.95302677 252.72536278 C165.84353365 252.67238525 170.73405076 252.62823185 175.62475586 252.59863281 C178.3652974 252.58160438 181.10556686 252.55677777 183.84596252 252.52377319 C186.42034351 252.49310208 188.99488791 252.47345323 191.56944275 252.46670532 C202.59408562 252.31331136 213.13392155 251.00458579 222 244 C222.61617188 243.51917969 223.23234375 243.03835937 223.8671875 242.54296875 C230.60425902 236.60104516 233.80684899 228.2836223 235 219.5 C235.53743151 208.54588129 231.70741545 199.47078012 224.6875 191.3125 C215.9006706 183.75173982 207.56283163 181.11012221 196 181 C192.04896182 181.43900424 188.45122919 182.46297027 184.73046875 183.83984375 C178.31350522 186.21204321 173.799143 186.67869109 167.3125 183.8125 C163.51720513 180.83780942 160.55045536 177.65136607 159 173 C158.47071639 166.75445345 159.01468492 162.01566483 163 157 C165.64887098 154.766798 168.37264543 152.79365732 171.24609375 150.859375 C178.84289836 145.73018494 182.81477178 140.16508489 186.375 131.75 C188.35887787 119.84673276 187.31200205 109.74881852 180.390625 99.65234375 C174.61058283 92.55986081 166.99106019 87.82653034 158 86 C146.53116417 84.86708388 137.57731035 87.20401902 128.3203125 94.0234375 C125.36677711 96.53941209 122.98183796 99.35966305 120.50390625 102.33203125 C117.90502127 105.21443096 115.67432807 105.83474974 111.90234375 106.20703125 C105.37121888 106.50142252 101.49446297 104.87084723 96.25 100.9375 C93.11418376 96.84351769 92.17636594 93.12994835 92 88 C92.8103284 83.0127211 94.97561537 78.96817814 97.5625 74.6875 C102.04633719 66.87475338 102.78327372 58.38322847 100.83203125 49.671875 C97.13474652 37.7989043 90.72891111 30.98105964 80 25 C71.56732381 21.34053675 61.18753382 21.77172628 52.6875 25 C42.02811849 30.09549662 36.35932705 37.10168237 32 48 C30.92602629 51.42330479 30.87278549 54.58795953 30.86869812 58.16645813 C30.86468994 59.43237793 30.86068176 60.69829773 30.85655212 62.00257874 C30.85702719 63.40316775 30.8575633 64.80375674 30.8581543 66.2043457 C30.85512174 67.68124495 30.85160002 69.15814327 30.84762573 70.63504028 C30.83974359 73.81454382 30.83459439 76.99403618 30.83133507 80.17354774 C30.82541869 85.20396472 30.80887231 90.23431118 30.78999329 95.26469421 C30.78365608 96.98781677 30.77733046 98.71093937 30.77101612 100.434062 C30.76785031 101.29695194 30.7646845 102.15984187 30.76142275 103.04887998 C30.71936782 114.75840427 30.68637163 126.46789544 30.67407227 138.17749023 C30.66568816 146.07844286 30.64318545 153.97922054 30.6047166 161.88008565 C30.58496935 166.05931646 30.57254694 170.23828585 30.57755089 174.4175663 C30.58220227 178.35017655 30.56836568 182.28229138 30.54053879 186.21480179 C30.53363548 187.65508714 30.53349123 189.09542381 30.54073906 190.53570747 C30.58240459 199.7484589 30.29658482 205.45789604 23.8125 212.3125 C19.2834281 215.02994314 14.93674338 216.37737394 9.62890625 215.6953125 C3.85370207 214.11760073 0.09112368 211.13347325 -3 206 C-4.09564296 202.61191268 -4.12720463 199.44461051 -4.13130188 195.89842224 C-4.13731415 194.02083473 -4.13731415 194.02083473 -4.14344788 192.10531616 C-4.1429728 190.72052 -4.14243669 189.33572385 -4.1418457 187.95092773 C-4.1448784 186.49037064 -4.14840017 185.02981448 -4.15237427 183.56925964 C-4.16025735 180.42414177 -4.16540606 177.27903521 -4.16866493 174.13390923 C-4.17458554 169.15280074 -4.19113754 164.17176333 -4.21000671 159.19068909 C-4.21634413 157.48346238 -4.22266975 155.77623562 -4.22898388 154.06900883 C-4.23214969 153.21399253 -4.2353155 152.35897623 -4.23857725 151.47805035 C-4.28059616 139.88438678 -4.31360529 128.2907561 -4.32592773 116.69702148 C-4.33432816 108.87367145 -4.35689367 101.05049738 -4.3952834 93.22723538 C-4.41498089 89.09147199 -4.42746981 84.95597126 -4.42244911 80.820158 C-4.41777666 76.92364899 -4.43174825 73.02763652 -4.45946121 69.13122749 C-4.46633016 67.70874792 -4.46654631 66.28621652 -4.45926094 64.86373901 C-4.39363491 50.59855581 -7.64085775 40.53435992 -17.625 30.3125 C-26.3995787 23.62927166 -36.19584907 21.66968452 -47 23 C-56.32087247 25.13628191 -63.79357278 29.51593943 -69.3125 37.375 C-70.23727009 38.89948475 -71.13544865 40.44057561 -72 42 C-72.34160156 42.59167969 -72.68320313 43.18335938 -73.03515625 43.79296875 C-76.4976574 51.08837815 -76.1838443 61.31926178 -74.23828125 69.01171875 C-72.77134286 72.79792732 -70.90046052 76.215214 -68.8125 79.6875 C-65.98651202 84.85223665 -65.47836582 88.92016704 -67 94.5625 C-68.77460499 99.36872184 -71.71713932 102.2745432 -76 105 C-81.1292104 106.7097368 -86.06147216 106.64617595 -91.1875 104.9375 C-93.64230868 103.24640958 -94.92711782 102.00956148 -96.75 99.75 C-103.49989491 91.45325418 -112.35994996 86.82040806 -122.91015625 85.6875 C-133.83527392 85.23639837 -142.92045594 88.67849097 -151 96 C-157.89227174 102.73198635 -161.26784908 111.47582188 -161.5625 121.0625 C-161.12244628 131.57746779 -157.63876158 140.61902966 -150 148 C-146.99345512 150.14359163 -143.95056952 152.1061471 -140.76953125 153.98046875 C-136.7335691 156.92347641 -134.57024233 160.28927302 -133 165 C-132.53296489 172.12228538 -133.62729484 176.10002703 -138.25 181.75 C-142.65606082 185.35495885 -146.30056287 186.08092558 -151.9375 185.8125 C-154.83641194 185.3533212 -156.89856705 184.6344812 -159.6875 183.5 C-167.84772845 180.23912131 -177.74851594 179.92086165 -186 183 C-191.54747668 185.5091383 -195.95814433 188.38073637 -200 193 C-200.680625 193.721875 -201.36125 194.44375 -202.0625 195.1875 C-207.81013316 203.53083846 -209.99821738 213.01096998 -208.375 223 C-206.16412525 232.27985585 -201.75287406 240.27127532 -194 246 C-185.61151562 250.43123617 -177.98368699 252.1115168 -168.53271484 252.16113281 C-167.80984283 252.16609772 -167.08697083 252.17106262 -166.3421936 252.17617798 C-163.9650983 252.19070821 -161.58806981 252.19758761 -159.2109375 252.203125 C-158.392943 252.20595238 -157.5749485 252.20877975 -156.73216629 252.21169281 C-152.40005423 252.22665136 -148.06797516 252.23590084 -143.73583984 252.24023438 C-139.29116216 252.24570238 -134.84679337 252.26970451 -130.40221214 252.29820633 C-126.95837564 252.31695968 -123.51461152 252.32204509 -120.0707283 252.32357025 C-118.43388818 252.32657066 -116.79704852 252.33450929 -115.16025925 252.34775543 C-101.20176754 252.45262177 -88.8652466 251.64290635 -78 242 C-70.97464901 234.83838143 -68.28920622 225.94545739 -67 216.1875 C-66.09939615 209.63483058 -64.31107926 206.19552529 -59.5 201.625 C-54.33870532 199.22868461 -49.59622182 199.23897533 -44 200 C-39.52129344 202.15937638 -36.81801812 204.92952939 -34 209 C-29.69653686 221.91038941 -34.89400036 237.4523998 -40.5625 249.25 C-49.19064319 266.12599382 -64.27347877 277.73606101 -82 284 C-93.6584828 287.60684312 -106.18638573 287.16203098 -118.26171875 287.16796875 C-119.82192514 287.17119257 -121.38213124 287.17455743 -122.94233704 287.17805481 C-126.19911396 287.18400761 -129.45586451 287.18589875 -132.71264648 287.18530273 C-136.83947867 287.18520144 -140.96613759 287.19883783 -145.09292889 287.21607494 C-148.31302126 287.22731865 -151.53307339 287.22921818 -154.75318336 287.22869301 C-156.27227181 287.22985521 -157.79136192 287.23417491 -159.31043053 287.24202538 C-183.92052561 287.35729701 -205.38087563 283.39866347 -224 266 C-236.65466745 253.05156349 -242.38001774 236.94387795 -242.42553711 219.1418457 C-242.43734298 216.96643288 -242.48652096 214.79394905 -242.53710938 212.61914062 C-242.74325395 194.83834921 -235.7039655 179.24201769 -223.4375 166.3125 C-214.51551425 157.84805198 -203.38912395 150.61114168 -191 149 C-191.27714844 148.13117188 -191.55429688 147.26234375 -191.83984375 146.3671875 C-192.20207031 145.21476563 -192.56429687 144.06234375 -192.9375 142.875 C-193.29714844 141.73804688 -193.65679687 140.60109375 -194.02734375 139.4296875 C-199.15909407 121.33460004 -195.83062439 102.87302917 -187.0546875 86.58203125 C-183.49956946 80.24958001 -179.32718093 74.946668 -174 70 C-173.49597656 69.47921875 -172.99195313 68.9584375 -172.47265625 68.421875 C-159.22038737 55.54658533 -140.40704916 50.736207 -122.46875 50.83203125 C-118.08391171 51.04436013 -114.22411475 51.83472697 -110 53 C-109.96132813 52.01773438 -109.96132813 52.01773438 -109.921875 51.015625 C-108.79426349 32.87133075 -99.90467171 17.27615322 -86.875 4.875 C-62.48322488 -15.82867166 -26.44971495 -18.19784107 0 0 Z " fill="#000000" transform="translate(242,12)"/>
<path d="M0 0 C1.03370224 -0.00365067 2.06740448 -0.00730133 3.13243103 -0.01106262 C6.52384249 -0.01911932 9.91476885 -0.0056002 13.30615234 0.0090332 C15.67548624 0.00955232 18.04482058 0.00903264 20.41415405 0.00752258 C25.36845366 0.00761208 30.32258979 0.01799781 35.27685547 0.03613281 C41.61973214 0.05884378 47.9623707 0.0593571 54.30527687 0.05261517 C59.19351306 0.04927065 64.08169519 0.05591402 68.96992111 0.0657444 C71.30864555 0.06958647 73.64737601 0.07074874 75.98610306 0.06915855 C79.25517452 0.06878681 82.52394292 0.08143823 85.79296875 0.09765625 C86.75419144 0.09517883 87.71541412 0.09270142 88.70576477 0.09014893 C96.27550918 0.14994194 102.6491718 0.7543964 108.26708984 6.37231445 C110.91661468 10.81557177 111.63989853 14.05873375 111.62785339 19.20602417 C111.63041667 19.86860265 111.63297994 20.53118113 111.63562089 21.21383774 C111.64053819 23.42039883 111.62410088 25.62626628 111.60766602 27.83276367 C111.60681929 29.41983524 111.60729577 31.00690799 111.60899353 32.59397888 C111.60985315 36.89317667 111.59223277 41.19212262 111.57127166 45.49126196 C111.55249936 49.98757998 111.55075398 54.48390397 111.54719543 58.98025513 C111.5378766 67.49056784 111.51326498 76.00076475 111.48314697 84.5110265 C111.44959795 94.20141233 111.43311568 103.89180373 111.41806066 113.58223319 C111.3867153 133.51232663 111.33335257 153.44230916 111.26708984 173.37231445 C117.53708984 173.37231445 123.80708984 173.37231445 130.26708984 173.37231445 C130.25137939 170.65231201 130.23566895 167.93230957 130.21948242 165.12988281 C130.16972717 156.13336423 130.1366171 147.13683951 130.11165333 138.14021969 C130.09601127 132.68666735 130.07479948 127.23325623 130.04077148 121.77978516 C130.00812625 116.51484861 129.99022584 111.25004774 129.98245811 105.98501778 C129.9769239 103.97840808 129.96611692 101.97180563 129.94989967 99.96525383 C129.92805691 97.15017647 129.9251258 94.33565656 129.92651367 91.52050781 C129.91033493 90.2818824 129.91033493 90.2818824 129.89382935 89.01823425 C129.92909957 82.38743169 131.26414284 77.74422538 135.64208984 72.55981445 C139.9421426 68.97643716 143.48171943 67.88849418 149.14599609 68.05981445 C154.58846812 68.86165195 158.31213401 71.17249815 161.70458984 75.43481445 C163.67817601 79.14515644 164.3926868 81.82877634 164.41426086 85.96916199 C164.42499382 87.38420517 164.42499382 87.38420517 164.4359436 88.82783508 C164.43863251 89.86111435 164.44132141 90.89439362 164.4440918 91.95898438 C164.45066299 93.04872559 164.45723419 94.1384668 164.46400452 95.26123047 C164.48374826 98.87508206 164.49540303 102.48889205 164.50537109 106.1027832 C164.50944662 107.33672632 164.51352215 108.57066944 164.51772118 109.84200478 C164.53643533 115.70035393 164.55099929 121.55868672 164.55933315 127.41706008 C164.56909514 134.16704871 164.5953886 140.9167085 164.63583404 147.66658133 C164.66971003 153.52224281 164.68148457 159.37779466 164.68553734 165.2335453 C164.69040632 167.71939637 164.70202908 170.20524385 164.72057533 172.6910305 C164.74494349 176.173843 164.74400534 179.65580008 164.73706055 183.13867188 C164.75627563 184.67340904 164.75627563 184.67340904 164.77587891 186.239151 C164.72420313 193.36456256 163.54334408 198.9867535 158.46923828 204.23014832 C153.08472311 207.4783439 148.74265525 208.04838423 142.51708984 207.8605957 C141.61837158 207.85352097 140.71965332 207.84644623 139.79370117 207.8391571 C136.95061538 207.81138534 134.10957043 207.7486823 131.26708984 207.68481445 C129.3283164 207.6597092 127.38951178 207.63689995 125.45068359 207.61645508 C120.72204435 207.56161554 115.99491191 207.47546578 111.26708984 207.37231445 C111.2770826 208.36710312 111.2770826 208.36710312 111.28727722 209.38198853 C111.35371488 216.2926142 111.39892566 223.20314893 111.43188477 230.11401367 C111.4469589 232.69217617 111.46742151 235.27031308 111.4934082 237.84838867 C111.5298507 241.55694907 111.54683036 245.26516999 111.56005859 248.97387695 C111.57554245 250.12409332 111.59102631 251.27430969 111.60697937 252.4593811 C111.60845054 259.4756954 111.31443428 264.2890312 106.16930294 269.49484158 C102.43975599 271.90752562 99.33605843 271.93314369 95.03749084 271.88697815 C94.21257454 271.89392368 93.38765823 271.90086921 92.53774446 271.90802521 C89.77545707 271.92631165 87.01402692 271.91602646 84.25170898 271.90576172 C82.27057756 271.91281937 80.28945154 271.92156374 78.30833435 271.93186951 C72.92814567 271.95439062 67.54825078 271.95141733 62.16803288 271.94254804 C57.67733904 271.93744154 53.18670058 271.94472798 48.69601244 271.95202011 C38.10254965 271.96902783 27.50923088 271.96544449 16.91577148 271.94873047 C5.98489846 271.93180716 -4.94557529 271.94764476 -15.8764047 271.97995335 C-25.25999119 272.00663856 -34.6434533 272.01392815 -44.02707392 272.00543827 C-49.63206598 272.00050609 -55.23681775 272.00274058 -60.84177971 272.02322578 C-66.11226823 272.041566 -71.38218186 272.0356442 -76.65263939 272.01102638 C-78.58680178 272.00601329 -80.52100785 272.00952113 -82.45513535 272.02217484 C-85.09619514 272.03808643 -87.73535744 272.02317336 -90.37632751 272.00050354 C-91.14141142 272.01233927 -91.90649533 272.024175 -92.6947636 272.03636938 C-98.48499341 271.93542121 -100.8291628 270.35553706 -104.73291016 266.37231445 C-106.69185595 262.82065713 -106.97878514 259.8666228 -106.95996094 255.84765625 C-106.95980988 254.7669133 -106.95965881 253.68617035 -106.95950317 252.57267761 C-106.9491806 251.41729996 -106.93885803 250.2619223 -106.92822266 249.0715332 C-106.92539276 247.88002151 -106.92256287 246.68850983 -106.91964722 245.46089172 C-106.90846449 241.6604299 -106.88336295 237.86020489 -106.85791016 234.05981445 C-106.84787791 231.48104182 -106.83875249 228.90226548 -106.83056641 226.32348633 C-106.80853136 220.00634842 -106.77507247 213.68934836 -106.73291016 207.37231445 C-108.53308594 207.41159058 -108.53308594 207.41159058 -110.36962891 207.45166016 C-114.84974301 207.54260289 -119.32977659 207.5997231 -123.81054688 207.64697266 C-125.74460602 207.67201686 -127.67857147 207.70606257 -129.61230469 207.74951172 C-132.40274246 207.81061095 -135.19192226 207.83862496 -137.98291016 207.8605957 C-138.83844482 207.88640213 -139.69397949 207.91220856 -140.57543945 207.938797 C-145.84260516 207.94122209 -149.42787843 206.9490937 -153.93505859 204.23014832 C-159.84962752 198.11824972 -160.31552605 191.37334062 -160.25048828 183.21801758 C-160.25749756 182.12754623 -160.26450684 181.03707489 -160.27172852 179.91355896 C-160.28926272 176.32663131 -160.27770124 172.74049944 -160.26416016 169.15356445 C-160.26685636 166.65067392 -160.27073986 164.14778442 -160.27575684 161.64489746 C-160.2816457 156.40633092 -160.27349282 151.16796941 -160.25439453 145.92944336 C-160.23262888 139.88987931 -160.23968154 133.85085554 -160.26170015 127.81130457 C-160.28210262 121.97960438 -160.27986276 116.14810804 -160.26817322 110.31639099 C-160.26551042 107.84451725 -160.26875989 105.37262966 -160.27809143 102.90077209 C-160.28828306 99.44235031 -160.27271766 95.9849568 -160.25048828 92.52661133 C-160.25858521 91.51130844 -160.26668213 90.49600555 -160.27502441 89.44993591 C-160.20233869 83.32645572 -159.39016119 78.42180389 -155.73291016 73.37231445 C-150.96844142 69.58018628 -147.06022895 67.9932705 -140.92431641 68.0949707 C-135.47925416 68.78409623 -131.71268318 71.16643997 -128.29541016 75.37231445 C-125.55863817 80.62691666 -125.59425825 85.33358161 -125.61938477 91.17993164 C-125.61923874 92.06809067 -125.61909271 92.95624969 -125.61894226 93.87132263 C-125.61963835 96.80396984 -125.62741658 99.73655336 -125.63525391 102.66918945 C-125.63711916 104.70371465 -125.63854256 106.7382403 -125.63954163 108.77276611 C-125.64335832 114.12556195 -125.6531814 119.47833062 -125.66424561 124.83111572 C-125.67447793 130.29406364 -125.67904315 135.75701596 -125.68408203 141.2199707 C-125.6948044 151.93743247 -125.71239437 162.65486695 -125.73291016 173.37231445 C-119.46291016 173.37231445 -113.19291016 173.37231445 -106.73291016 173.37231445 C-106.77931641 170.71040039 -106.82572266 168.04848633 -106.87353516 165.3059082 C-106.90478222 162.71111963 -106.92904057 160.11635249 -106.95263672 157.52148438 C-106.97268017 155.72614063 -106.99992266 153.93086159 -107.03466797 152.13574219 C-107.08350865 149.54646795 -107.10595135 146.95806105 -107.12353516 144.3684082 C-107.1441803 143.57333359 -107.16482544 142.77825897 -107.18609619 141.95909119 C-107.1883514 136.28412104 -106.00381149 133.03655489 -102.73291016 128.37231445 C-97.76409109 124.41754009 -93.69726095 123.72499638 -87.38525391 123.9934082 C-83.16616697 124.59613491 -81.09859327 125.69350545 -77.73291016 128.37231445 C-73.55024216 134.18504745 -73.17200385 138.67052524 -73.27880859 145.71386719 C-73.27832645 146.74557824 -73.27784431 147.7772893 -73.27734756 148.84026432 C-73.28032065 152.16250299 -73.31072321 155.48383123 -73.34228516 158.8059082 C-73.34817017 160.86388721 -73.35224849 162.9218722 -73.35449219 164.9798584 C-73.3754188 172.58993537 -73.43126396 180.19988396 -73.48291016 187.80981445 C-73.56541016 204.82543945 -73.64791016 221.84106445 -73.73291016 239.37231445 C-23.57291016 239.37231445 26.58708984 239.37231445 78.26708984 239.37231445 C78.26708984 171.72231445 78.26708984 104.07231445 78.26708984 34.37231445 C54.83708984 34.37231445 31.40708984 34.37231445 7.26708984 34.37231445 C7.42518201 56.72016582 7.42518201 56.72016582 7.62744141 79.06762695 C7.64550781 83.41137695 7.64550781 83.41137695 7.64886475 85.45141602 C7.6549664 86.86194928 7.66894982 88.272463 7.68939209 89.68286133 C7.89589885 104.69428238 7.89589885 104.69428238 3.26708984 111.37231445 C-2.75740765 116.23694701 -9.2511961 116.52213566 -16.68505859 116.53344727 C-17.86415802 116.54089462 -17.86415802 116.54089462 -19.06707764 116.54849243 C-21.65882251 116.56305599 -24.25050615 116.56990673 -26.84228516 116.57543945 C-28.65203858 116.58119616 -30.461792 116.58695382 -32.27154541 116.5927124 C-36.06433393 116.60320622 -39.85710136 116.60905932 -43.64990234 116.61254883 C-48.49284884 116.61802682 -53.33551324 116.64204683 -58.17837143 116.67052078 C-61.91718339 116.68921162 -65.6559283 116.69435621 -69.39478302 116.6958847 C-71.17923777 116.69889777 -72.96369173 116.70688045 -74.74810028 116.72006989 C-95.41681257 116.86192527 -95.41681257 116.86192527 -102.67041016 110.99731445 C-106.36403015 106.29634356 -106.96056817 102.58301966 -107.09619141 96.7512207 C-106.25962854 91.27308324 -103.18445245 87.45608607 -99.31103516 83.69262695 C-98.44994141 82.84571289 -97.58884766 81.99879883 -96.70166016 81.1262207 C-95.80447266 80.25868164 -94.90728516 79.39114258 -93.98291016 78.49731445 C-92.2148742 76.77322091 -90.44920937 75.04669214 -88.68603516 73.31762695 C-87.90389648 72.55981934 -87.12175781 71.80201172 -86.31591797 71.02124023 C-84.36125777 69.0166974 -82.54207363 67.00763478 -80.72558594 64.88476562 C-75.39279714 58.73921122 -69.61716697 53.00935485 -63.89697266 47.2277832 C-63.28576946 46.61000818 -62.67456627 45.99223316 -62.04484177 45.35573769 C-58.81539949 42.09391775 -55.58203392 38.83603619 -52.34619141 35.58056641 C-49.6826421 32.8991475 -47.0278907 30.20945257 -44.38037109 27.51220703 C-41.16313243 24.23465386 -37.93129658 20.97218438 -34.68861008 17.71981239 C-33.46274599 16.4854249 -32.2419963 15.24593498 -31.02669144 14.00115013 C-29.32370489 12.25906065 -27.60252484 10.53705804 -25.87597656 8.81835938 C-25.38633926 8.30872147 -24.89670197 7.79908356 -24.39222717 7.27400208 C-17.49071684 0.51132248 -9.26234315 -0.0739666 0 0 Z M-29.77197266 61.27856445 C-36.50637828 68.03331572 -42.77567784 74.92577405 -48.73291016 82.37231445 C-41.47291016 82.37231445 -34.21291016 82.37231445 -26.73291016 82.37231445 C-26.73291016 74.78231445 -26.73291016 67.19231445 -26.73291016 59.37231445 C-28.07638364 59.25849506 -28.07638364 59.25849506 -29.77197266 61.27856445 Z " fill="#000000" transform="translate(252.73291015625,239.627685546875)"/>
<path d="M0 0 C16.91329616 8.6117123 28.17009106 23.75460092 34.8203125 41.25390625 C37.75126689 50.80084992 39.37534784 61.95755316 35.75 71.4375 C33.91015625 73.6171875 33.91015625 73.6171875 31.8125 75.3125 C31.12285156 75.88742188 30.43320312 76.46234375 29.72265625 77.0546875 C25.73104139 79.85277 21.46078036 80.03369502 16.75 79.4375 C10.79916549 77.55432452 7.79561129 74.97497508 4.75 69.4375 C3.84624507 66.35049311 3.288107 63.23135236 2.75 60.0625 C0.93336976 49.46549029 -2.60052455 40.2185278 -11.61328125 33.73828125 C-17.37183383 30.12935528 -22.57137527 27.92736711 -29.359375 27.0234375 C-40.99994218 25.46960613 -40.99994218 25.46960613 -45.25 21.4375 C-49.42840401 15.93959998 -50.17521576 11.26378702 -49.25 4.4375 C-47.5808714 -0.30633917 -45.41666048 -2.78472634 -41.25 -5.5625 C-28.44883815 -11.52351004 -12.0289743 -5.78296654 0 0 Z " fill="#000000" transform="translate(345.25,153.5625)"/>
<path d="M0 0 C3.42981955 2.56203388 5.28058904 5.18942336 6.62109375 9.2109375 C7.35237327 16.06818155 6.82692502 20.67694899 2.62109375 26.2109375 C-2.07556402 29.96687005 -5.86188408 30.9248212 -11.62890625 31.6484375 C-22.53945585 33.30996035 -31.720774 37.21150414 -38.8125 45.984375 C-43.58422907 52.92249738 -45.02601315 60.83611579 -46.31640625 69.0234375 C-47.25933375 74.31891835 -48.56180579 78.21392629 -53.13671875 81.45703125 C-58.01908502 84.22370547 -61.82083984 84.83846113 -67.37890625 84.2109375 C-72.73590176 82.38955903 -76.61400902 79.12831172 -79.37890625 74.2109375 C-83.13922132 60.44510572 -77.83849995 44.13379484 -71.19140625 32.0859375 C-67.5574825 26.14586983 -63.27977295 21.13759824 -58.37890625 16.2109375 C-57.78851563 15.58574219 -57.198125 14.96054688 -56.58984375 14.31640625 C-44.2046942 2.23133741 -16.21864868 -9.50864642 0 0 Z " fill="#000000" transform="translate(207.37890625,148.7890625)"/>
</svg>
